<svg version="1.1" viewBox="0.0 0.0 600.0 371.0" fill="none" stroke="none" stroke-linecap="square" stroke-miterlimit="10" width="600" height="371" xmlns:xlink="http://www.w3.org/1999/xlink" xmlns="http://www.w3.org/2000/svg"><path fill="#ffffff" d="M0 0L600.0 0L600.0 371.0L0 371.0L0 0Z" fill-rule="nonzero"/><path stroke="#333333" stroke-width="1.0" stroke-linecap="butt" d="M77.5 300.5L581.5 300.5" fill-rule="nonzero"/><path stroke="#cccccc" stroke-width="1.0" stroke-linecap="butt" d="M77.5 229.5L581.5 229.5" fill-rule="nonzero"/><path stroke="#cccccc" stroke-width="1.0" stroke-linecap="butt" d="M77.5 159.5L581.5 159.5" fill-rule="nonzero"/><path stroke="#cccccc" stroke-width="1.0" stroke-linecap="butt" d="M77.5 88.5L581.5 88.5" fill-rule="nonzero"/><clipPath id="id_0"><path d="M77.55 88.28333L581.45 88.28333L581.45 300.45L77.55 300.45L77.55 88.28333Z" clip-rule="nonzero"/></clipPath><path stroke="#4285f4" stroke-width="2.0" stroke-linecap="butt" clip-path="url(#id_0)" d="M95.546425 258.01666L131.53929 173.15L167.53215 173.15L203.525 201.43889L239.51785 258.01666L275.5107 258.01666L311.50357 258.01666L347.49643 229.72778L383.4893 159.00555L419.48215 159.00555L455.475 201.43889L491.46786 201.43889L527.4607 272.1611L563.45355 243.87222" fill-rule="nonzero"/><path stroke="#ea4335" stroke-width="2.0" stroke-linecap="butt" clip-path="url(#id_0)" d="M95.546425 187.29445L131.53929 159.00555L167.53215 173.15L203.525 173.15L239.51785 258.01666L275.5107 272.1611L311.50357 286.30554L347.49643 229.72778L383.4893 229.72778L419.48215 258.01666L455.475 243.87222L491.46786 243.87222L527.4607 88.28333L563.45355 229.72778" fill-rule="nonzero"/><path fill="#000000" fill-opacity="0.0" clip-path="url(#id_0)" d="M98.546425 258.01666C98.546425 259.67352 97.203285 261.01666 95.546425 261.01666C93.88957 261.01666 92.546425 259.67352 92.546425 258.01666C92.546425 256.3598 93.88957 255.01666 95.546425 255.01666C97.203285 255.01666 98.546425 256.3598 98.546425 258.01666Z" fill-rule="nonzero"/><path fill="#000000" fill-opacity="0.0" clip-path="url(#id_0)" d="M134.53929 173.15C134.53929 174.80685 133.19614 176.15 131.53929 176.15C129.88243 176.15 128.53929 174.80685 128.53929 173.15C128.53929 171.49315 129.88243 170.15 131.53929 170.15C133.19614 170.15 134.53929 171.49315 134.53929 173.15Z" fill-rule="nonzero"/><path fill="#000000" fill-opacity="0.0" clip-path="url(#id_0)" d="M170.53215 173.15C170.53215 174.80685 169.189 176.15 167.53215 176.15C165.87529 176.15 164.53215 174.80685 164.53215 173.15C164.53215 171.49315 165.87529 170.15 167.53215 170.15C169.189 170.15 170.53215 171.49315 170.53215 173.15Z" fill-rule="nonzero"/><path fill="#000000" fill-opacity="0.0" clip-path="url(#id_0)" d="M206.525 201.43889C206.525 203.09575 205.18185 204.43889 203.525 204.43889C201.86815 204.43889 200.525 203.09575 200.525 201.43889C200.525 199.78203 201.86815 198.43889 203.525 198.43889C205.18185 198.43889 206.525 199.78203 206.525 201.43889Z" fill-rule="nonzero"/><path fill="#000000" fill-opacity="0.0" clip-path="url(#id_0)" d="M242.51785 258.01666C242.51785 259.67352 241.17471 261.01666 239.51785 261.01666C237.86101 261.01666 236.51785 259.67352 236.51785 258.01666C236.51785 256.3598 237.86101 255.01666 239.51785 255.01666C241.17471 255.01666 242.51785 256.3598 242.51785 258.01666Z" fill-rule="nonzero"/><path fill="#000000" fill-opacity="0.0" clip-path="url(#id_0)" d="M278.5107 258.01666C278.5107 259.67352 277.16757 261.01666 275.5107 261.01666C273.85385 261.01666 272.5107 259.67352 272.5107 258.01666C272.5107 256.3598 273.85385 255.01666 275.5107 255.01666C277.16757 255.01666 278.5107 256.3598 278.5107 258.01666Z" fill-rule="nonzero"/><path fill="#000000" fill-opacity="0.0" clip-path="url(#id_0)" d="M314.50357 258.01666C314.50357 259.67352 313.16043 261.01666 311.50357 261.01666C309.8467 261.01666 308.50357 259.67352 308.50357 258.01666C308.50357 256.3598 309.8467 255.01666 311.50357 255.01666C313.16043 255.01666 314.50357 256.3598 314.50357 258.01666Z" fill-rule="nonzero"/><path fill="#000000" fill-opacity="0.0" clip-path="url(#id_0)" d="M350.49643 229.72778C350.49643 231.38463 349.1533 232.72778 347.49643 232.72778C345.83957 232.72778 344.49643 231.38463 344.49643 229.72778C344.49643 228.07092 345.83957 226.72778 347.49643 226.72778C349.1533 226.72778 350.49643 228.07092 350.49643 229.72778Z" fill-rule="nonzero"/><path fill="#000000" fill-opacity="0.0" clip-path="url(#id_0)" d="M386.4893 159.00555C386.4893 160.66241 385.14615 162.00555 383.4893 162.00555C381.83243 162.00555 380.4893 160.66241 380.4893 159.00555C380.4893 157.3487 381.83243 156.00555 383.4893 156.00555C385.14615 156.00555 386.4893 157.3487 386.4893 159.00555Z" fill-rule="nonzero"/><path fill="#000000" fill-opacity="0.0" clip-path="url(#id_0)" d="M422.48215 159.00555C422.48215 160.66241 421.139 162.00555 419.48215 162.00555C417.8253 162.00555 416.48215 160.66241 416.48215 159.00555C416.48215 157.3487 417.8253 156.00555 419.48215 156.00555C421.139 156.00555 422.48215 157.3487 422.48215 159.00555Z" fill-rule="nonzero"/><path fill="#000000" fill-opacity="0.0" clip-path="url(#id_0)" d="M458.475 201.43889C458.475 203.09575 457.13187 204.43889 455.475 204.43889C453.81815 204.43889 452.475 203.09575 452.475 201.43889C452.475 199.78203 453.81815 198.43889 455.475 198.43889C457.13187 198.43889 458.475 199.78203 458.475 201.43889Z" fill-rule="nonzero"/><path fill="#000000" fill-opacity="0.0" clip-path="url(#id_0)" d="M494.46786 201.43889C494.46786 203.09575 493.12473 204.43889 491.46786 204.43889C489.811 204.43889 488.46786 203.09575 488.46786 201.43889C488.46786 199.78203 489.811 198.43889 491.46786 198.43889C493.12473 198.43889 494.46786 199.78203 494.46786 201.43889Z" fill-rule="nonzero"/><path fill="#000000" fill-opacity="0.0" clip-path="url(#id_0)" d="M530.4607 272.1611C530.4607 273.81796 529.11755 275.1611 527.4607 275.1611C525.80383 275.1611 524.4607 273.81796 524.4607 272.1611C524.4607 270.50424 525.80383 269.1611 527.4607 269.1611C529.11755 269.1611 530.4607 270.50424 530.4607 272.1611Z" fill-rule="nonzero"/><path fill="#000000" fill-opacity="0.0" clip-path="url(#id_0)" d="M566.45355 243.87222C566.45355 245.52908 565.1104 246.87222 563.45355 246.87222C561.7967 246.87222 560.45355 245.52908 560.45355 243.87222C560.45355 242.21536 561.7967 240.87222 563.45355 240.87222C565.1104 240.87222 566.45355 242.21536 566.45355 243.87222Z" fill-rule="nonzero"/><path fill="#000000" fill-opacity="0.0" clip-path="url(#id_0)" d="M98.546425 187.29445C98.546425 188.9513 97.203285 190.29445 95.546425 190.29445C93.88957 190.29445 92.546425 188.9513 92.546425 187.29445C92.546425 185.63759 93.88957 184.29445 95.546425 184.29445C97.203285 184.29445 98.546425 185.63759 98.546425 187.29445Z" fill-rule="nonzero"/><path fill="#000000" fill-opacity="0.0" clip-path="url(#id_0)" d="M134.53929 159.00555C134.53929 160.66241 133.19614 162.00555 131.53929 162.00555C129.88243 162.00555 128.53929 160.66241 128.53929 159.00555C128.53929 157.3487 129.88243 156.00555 131.53929 156.00555C133.19614 156.00555 134.53929 157.3487 134.53929 159.00555Z" fill-rule="nonzero"/><path fill="#000000" fill-opacity="0.0" clip-path="url(#id_0)" d="M170.53215 173.15C170.53215 174.80685 169.189 176.15 167.53215 176.15C165.87529 176.15 164.53215 174.80685 164.53215 173.15C164.53215 171.49315 165.87529 170.15 167.53215 170.15C169.189 170.15 170.53215 171.49315 170.53215 173.15Z" fill-rule="nonzero"/><path fill="#000000" fill-opacity="0.0" clip-path="url(#id_0)" d="M206.525 173.15C206.525 174.80685 205.18185 176.15 203.525 176.15C201.86815 176.15 200.525 174.80685 200.525 173.15C200.525 171.49315 201.86815 170.15 203.525 170.15C205.18185 170.15 206.525 171.49315 206.525 173.15Z" fill-rule="nonzero"/><path fill="#000000" fill-opacity="0.0" clip-path="url(#id_0)" d="M242.51785 258.01666C242.51785 259.67352 241.17471 261.01666 239.51785 261.01666C237.86101 261.01666 236.51785 259.67352 236.51785 258.01666C236.51785 256.3598 237.86101 255.01666 239.51785 255.01666C241.17471 255.01666 242.51785 256.3598 242.51785 258.01666Z" fill-rule="nonzero"/><path fill="#000000" fill-opacity="0.0" clip-path="url(#id_0)" d="M278.5107 272.1611C278.5107 273.81796 277.16757 275.1611 275.5107 275.1611C273.85385 275.1611 272.5107 273.81796 272.5107 272.1611C272.5107 270.50424 273.85385 269.1611 275.5107 269.1611C277.16757 269.1611 278.5107 270.50424 278.5107 272.1611Z" fill-rule="nonzero"/><path fill="#000000" fill-opacity="0.0" clip-path="url(#id_0)" d="M314.50357 286.30554C314.50357 287.9624 313.16043 289.30554 311.50357 289.30554C309.8467 289.30554 308.50357 287.9624 308.50357 286.30554C308.50357 284.6487 309.8467 283.30554 311.50357 283.30554C313.16043 283.30554 314.50357 284.6487 314.50357 286.30554Z" fill-rule="nonzero"/><path fill="#000000" fill-opacity="0.0" clip-path="url(#id_0)" d="M350.49643 229.72778C350.49643 231.38463 349.1533 232.72778 347.49643 232.72778C345.83957 232.72778 344.49643 231.38463 344.49643 229.72778C344.49643 228.07092 345.83957 226.72778 347.49643 226.72778C349.1533 226.72778 350.49643 228.07092 350.49643 229.72778Z" fill-rule="nonzero"/><path fill="#000000" fill-opacity="0.0" clip-path="url(#id_0)" d="M386.4893 229.72778C386.4893 231.38463 385.14615 232.72778 383.4893 232.72778C381.83243 232.72778 380.4893 231.38463 380.4893 229.72778C380.4893 228.07092 381.83243 226.72778 383.4893 226.72778C385.14615 226.72778 386.4893 228.07092 386.4893 229.72778Z" fill-rule="nonzero"/><path fill="#000000" fill-opacity="0.0" clip-path="url(#id_0)" d="M422.48215 258.01666C422.48215 259.67352 421.139 261.01666 419.48215 261.01666C417.8253 261.01666 416.48215 259.67352 416.48215 258.01666C416.48215 256.3598 417.8253 255.01666 419.48215 255.01666C421.139 255.01666 422.48215 256.3598 422.48215 258.01666Z" fill-rule="nonzero"/><path fill="#000000" fill-opacity="0.0" clip-path="url(#id_0)" d="M458.475 243.87222C458.475 245.52908 457.13187 246.87222 455.475 246.87222C453.81815 246.87222 452.475 245.52908 452.475 243.87222C452.475 242.21536 453.81815 240.87222 455.475 240.87222C457.13187 240.87222 458.475 242.21536 458.475 243.87222Z" fill-rule="nonzero"/><path fill="#000000" fill-opacity="0.0" clip-path="url(#id_0)" d="M494.46786 243.87222C494.46786 245.52908 493.12473 246.87222 491.46786 246.87222C489.811 246.87222 488.46786 245.52908 488.46786 243.87222C488.46786 242.21536 489.811 240.87222 491.46786 240.87222C493.12473 240.87222 494.46786 242.21536 494.46786 243.87222Z" fill-rule="nonzero"/><path fill="#000000" fill-opacity="0.0" clip-path="url(#id_0)" d="M530.4607 88.28333C530.4607 89.940186 529.11755 91.28333 527.4607 91.28333C525.80383 91.28333 524.4607 89.940186 524.4607 88.28333C524.4607 86.62648 525.80383 85.28333 527.4607 85.28333C529.11755 85.28333 530.4607 86.62648 530.4607 88.28333Z" fill-rule="nonzero"/><path fill="#000000" fill-opacity="0.0" clip-path="url(#id_0)" d="M566.45355 229.72778C566.45355 231.38463 565.1104 232.72778 563.45355 232.72778C561.7967 232.72778 560.45355 231.38463 560.45355 229.72778C560.45355 228.07092 561.7967 226.72778 563.45355 226.72778C565.1104 226.72778 566.45355 228.07092 566.45355 229.72778Z" fill-rule="nonzero"/><path fill="#000000" d="M299.42188 349.45L299.42188 340.85626L302.67188 340.85626Q303.51562 340.85626 303.96875 340.9344Q304.60938 341.04376 305.03125 341.34064Q305.46875 341.6375 305.71875 342.16876Q305.98438 342.7 305.98438 343.34064Q305.98438 344.4344 305.28125 345.2Q304.59375 345.95 302.76562 345.95L300.5625 345.95L300.5625 349.45L299.42188 349.45ZM300.5625 344.95L302.78125 344.95Q303.89062 344.95 304.34375 344.54376Q304.8125 344.1219 304.8125 343.3719Q304.8125 342.84064 304.53125 342.46564Q304.26562 342.075 303.82812 341.95Q303.53125 341.8719 302.76562 341.8719L300.5625 341.8719L300.5625 344.95ZM311.35938 348.6844Q310.76562 349.1844 310.21875 349.3875Q309.6875 349.59064 309.0625 349.59064Q308.03125 349.59064 307.48438 349.09064Q306.9375 348.59064 306.9375 347.8094Q306.9375 347.35626 307.14062 346.98126Q307.34375 346.59064 307.6875 346.3719Q308.03125 346.1375 308.45312 346.02814Q308.75 345.9344 309.39062 345.85626Q310.65625 345.71564 311.26562 345.4969Q311.26562 345.27814 311.26562 345.23126Q311.26562 344.575 310.96875 344.3094Q310.5625 343.96564 309.76562 343.96564Q309.03125 343.96564 308.67188 344.23126Q308.3125 344.48126 308.14062 345.1375L307.10938 344.9969Q307.25 344.34064 307.57812 343.9344Q307.90625 343.52814 308.51562 343.3094Q309.125 343.09064 309.92188 343.09064Q310.71875 343.09064 311.21875 343.27814Q311.71875 343.46564 311.95312 343.7469Q312.1875 344.02814 312.28125 344.46564Q312.32812 344.73126 312.32812 345.4344L312.32812 346.84064Q312.32812 348.3094 312.39062 348.7Q312.46875 349.09064 312.67188 349.45L311.5625 349.45Q311.40625 349.1219 311.35938 348.6844ZM311.26562 346.325Q310.6875 346.5594 309.54688 346.73126Q308.89062 346.825 308.625 346.95Q308.35938 347.0594 308.20312 347.27814Q308.0625 347.4969 308.0625 347.77814Q308.0625 348.2 308.375 348.48126Q308.70312 348.7625 309.3125 348.7625Q309.92188 348.7625 310.39062 348.4969Q310.875 348.23126 311.09375 347.7625Q311.26562 347.40314 311.26562 346.71564L311.26562 346.325ZM318.35938 347.16876L319.39062 347.3094Q319.21875 348.3719 318.51562 348.98126Q317.8125 349.59064 316.79688 349.59064Q315.51562 349.59064 314.73438 348.7625Q313.96875 347.91876 313.96875 346.35626Q313.96875 345.35626 314.29688 344.60626Q314.64062 343.84064 315.3125 343.46564Q316.0 343.09064 316.8125 343.09064Q317.8125 343.09064 318.45312 343.60626Q319.10938 344.10626 319.29688 345.0594L318.26562 345.21564Q318.125 344.59064 317.75 344.27814Q317.375 343.95 316.84375 343.95Q316.04688 343.95 315.54688 344.52814Q315.04688 345.09064 315.04688 346.325Q315.04688 347.59064 315.53125 348.15314Q316.01562 348.71564 316.78125 348.71564Q317.40625 348.71564 317.8125 348.34064Q318.23438 347.96564 318.35938 347.16876ZM320.29688 349.45L320.29688 340.85626L321.35938 340.85626L321.35938 345.7625L323.84375 343.23126L325.21875 343.23126L322.82812 345.52814L325.45312 349.45L324.15625 349.45L322.09375 346.2625L321.35938 346.98126L321.35938 349.45L320.29688 349.45ZM330.54688 347.45L331.64062 347.575Q331.39062 348.52814 330.6875 349.0594Q329.98438 349.59064 328.90625 349.59064Q327.54688 349.59064 326.73438 348.7469Q325.9375 347.90314 325.9375 346.3875Q325.9375 344.825 326.75 343.96564Q327.5625 343.09064 328.84375 343.09064Q330.09375 343.09064 330.875 343.9344Q331.67188 344.77814 331.67188 346.325Q331.67188 346.41876 331.67188 346.60626L327.03125 346.60626Q327.09375 347.6375 327.60938 348.1844Q328.125 348.71564 328.90625 348.71564Q329.48438 348.71564 329.89062 348.41876Q330.3125 348.10626 330.54688 347.45ZM327.09375 345.7469L330.5625 345.7469Q330.5 344.95 330.17188 344.5594Q329.65625 343.95 328.85938 343.95Q328.125 343.95 327.625 344.4344Q327.14062 344.91876 327.09375 345.7469ZM335.59375 348.5125L335.75 349.4344Q335.29688 349.52814 334.95312 349.52814Q334.375 349.52814 334.0625 349.35626Q333.75 349.16876 333.60938 348.8719Q333.48438 348.575 333.48438 347.6219L333.48438 344.04376L332.71875 344.04376L332.71875 343.23126L333.48438 343.23126L333.48438 341.6844L334.53125 341.0594L334.53125 343.23126L335.59375 343.23126L335.59375 344.04376L334.53125 344.04376L334.53125 347.6844Q334.53125 348.1375 334.57812 348.2625Q334.64062 348.3875 334.76562 348.46564Q334.89062 348.54376 335.125 348.54376Q335.3125 348.54376 335.59375 348.5125ZM338.875 347.59064L339.90625 347.4344Q340.0 348.0594 340.39062 348.3875Q340.79688 348.71564 341.53125 348.71564Q342.25 348.71564 342.59375 348.4344Q342.95312 348.1375 342.95312 347.73126Q342.95312 347.3719 342.64062 347.16876Q342.42188 347.02814 341.5625 346.8094Q340.40625 346.5125 339.95312 346.3094Q339.51562 346.09064 339.28125 345.71564Q339.04688 345.34064 339.04688 344.8719Q339.04688 344.46564 339.23438 344.10626Q339.42188 343.7469 339.75 343.5125Q340.0 343.34064 340.42188 343.21564Q340.84375 343.09064 341.34375 343.09064Q342.0625 343.09064 342.60938 343.3094Q343.17188 343.5125 343.4375 343.8719Q343.70312 344.23126 343.79688 344.825L342.76562 344.96564Q342.70312 344.4969 342.35938 344.23126Q342.03125 343.95 341.40625 343.95Q340.6875 343.95 340.375 344.2Q340.0625 344.4344 340.0625 344.7625Q340.0625 344.96564 340.1875 345.1219Q340.32812 345.29376 340.59375 345.40314Q340.75 345.46564 341.53125 345.66876Q342.65625 345.98126 343.09375 346.16876Q343.53125 346.35626 343.78125 346.71564Q344.03125 347.075 344.03125 347.6219Q344.03125 348.15314 343.71875 348.6219Q343.42188 349.075 342.84375 349.34064Q342.26562 349.59064 341.53125 349.59064Q340.3125 349.59064 339.67188 349.09064Q339.04688 348.575 338.875 347.59064ZM346.29688 342.075L346.29688 340.85626L347.35938 340.85626L347.35938 342.075L346.29688 342.075ZM346.29688 349.45L346.29688 343.23126L347.35938 343.23126L347.35938 349.45L346.29688 349.45ZM348.73438 349.45L348.73438 348.59064L352.70312 344.04376Q352.01562 344.075 351.5 344.075L348.96875 344.075L348.96875 343.23126L354.0625 343.23126L354.0625 343.91876L350.6875 347.8719L350.03125 348.59064Q350.75 348.54376 351.35938 348.54376L354.25 348.54376L354.25 349.45L348.73438 349.45ZM358.54688 347.45L359.64062 347.575Q359.39062 348.52814 358.6875 349.0594Q357.98438 349.59064 356.90625 349.59064Q355.54688 349.59064 354.73438 348.7469Q353.9375 347.90314 353.9375 346.3875Q353.9375 344.825 354.75 343.96564Q355.5625 343.09064 356.84375 343.09064Q358.09375 343.09064 358.875 343.9344Q359.67188 344.77814 359.67188 346.325Q359.67188 346.41876 359.67188 346.60626L355.03125 346.60626Q355.09375 347.6375 355.60938 348.1844Q356.125 348.71564 356.90625 348.71564Q357.48438 348.71564 357.89062 348.41876Q358.3125 348.10626 358.54688 347.45ZM355.09375 345.7469L358.5625 345.7469Q358.5 344.95 358.17188 344.5594Q357.65625 343.95 356.85938 343.95Q356.125 343.95 355.625 344.4344Q355.14062 344.91876 355.09375 345.7469Z" fill-rule="nonzero"/><path fill="#000000" d="M29.550013 202.99167L28.628138 202.99167Q29.690638 203.72604 29.690638 204.97604Q29.690638 205.52292 29.487513 206.0073Q29.268763 206.47604 28.956263 206.71042Q28.628138 206.9448 28.159388 207.03854Q27.862513 207.10104 27.175013 207.10104L23.331263 207.10104L23.331263 206.03854L26.784388 206.03854Q27.596888 206.03854 27.893763 205.97604Q28.300013 205.8823 28.550013 205.5698Q28.784388 205.24167 28.784388 204.7573Q28.784388 204.28854 28.550013 203.8823Q28.300013 203.46042 27.878138 203.28854Q27.456263 203.10104 26.659388 203.10104L23.331263 203.10104L23.331263 202.05417L29.550013 202.05417L29.550013 202.99167ZM27.690638 200.49167L27.534388 199.46042Q28.159388 199.36667 28.487513 198.97604Q28.815638 198.5698 28.815638 197.83542Q28.815638 197.11667 28.534388 196.77292Q28.237513 196.41354 27.831263 196.41354Q27.471888 196.41354 27.268763 196.72604Q27.128138 196.9448 26.909388 197.80417Q26.612513 198.96042 26.409388 199.41354Q26.190638 199.85104 25.815638 200.08542Q25.440638 200.3198 24.971888 200.3198Q24.565638 200.3198 24.206263 200.1323Q23.846888 199.9448 23.612513 199.61667Q23.440638 199.36667 23.315638 198.9448Q23.190638 198.52292 23.190638 198.02292Q23.190638 197.30417 23.409388 196.7573Q23.612513 196.1948 23.971888 195.92917Q24.331263 195.66354 24.925013 195.5698L25.065638 196.60104Q24.596888 196.66354 24.331263 197.0073Q24.050013 197.33542 24.050013 197.96042Q24.050013 198.67917 24.300013 198.99167Q24.534388 199.30417 24.862513 199.30417Q25.065638 199.30417 25.221888 199.17917Q25.393763 199.03854 25.503138 198.77292Q25.565638 198.61667 25.768763 197.83542Q26.081263 196.71042 26.268763 196.27292Q26.456263 195.83542 26.815638 195.58542Q27.175013 195.33542 27.721888 195.33542Q28.253138 195.33542 28.721888 195.64792Q29.175013 195.9448 29.440638 196.52292Q29.690638 197.10104 29.690638 197.83542Q29.690638 199.05417 29.190638 199.6948Q28.675013 200.3198 27.690638 200.49167Z" fill-rule="nonzero"/><path fill="#000000" d="M65.05 300.21564Q65.05 298.6844 65.3625 297.7625Q65.675 296.825 66.28438 296.325Q66.90938 295.825 67.84688 295.825Q68.53438 295.825 69.05 296.10626Q69.58125 296.3875 69.925 296.91876Q70.26875 297.4344 70.45625 298.1844Q70.64375 298.9344 70.64375 300.21564Q70.64375 301.73126 70.33125 302.65314Q70.03438 303.575 69.40938 304.09064Q68.8 304.59064 67.84688 304.59064Q66.6125 304.59064 65.89375 303.7Q65.05 302.6375 65.05 300.21564ZM66.12813 300.21564Q66.12813 302.325 66.62813 303.02814Q67.12813 303.73126 67.84688 303.73126Q68.58125 303.73126 69.06563 303.02814Q69.56563 302.325 69.56563 300.21564Q69.56563 298.09064 69.06563 297.40314Q68.58125 296.7 67.83125 296.7Q67.1125 296.7 66.675 297.3094Q66.12813 298.09064 66.12813 300.21564Z" fill-rule="nonzero"/><path fill="#000000" d="M65.05 231.47778L66.15938 231.38403Q66.28438 232.19653 66.72188 232.60278Q67.175 233.00903 67.81563 233.00903Q68.56563 233.00903 69.09688 232.43091Q69.62813 231.85278 69.62813 230.91528Q69.62813 230.00903 69.1125 229.49341Q68.6125 228.96216 67.78438 228.96216Q67.28438 228.96216 66.8625 229.19653Q66.45625 229.43091 66.22188 229.79028L65.2375 229.66528L66.06563 225.25903L70.34688 225.25903L70.34688 226.25903L66.90938 226.25903L66.45625 228.57153Q67.22188 228.02466 68.06563 228.02466Q69.19063 228.02466 69.95625 228.80591Q70.7375 229.58716 70.7375 230.82153Q70.7375 231.97778 70.06563 232.83716Q69.2375 233.86841 67.81563 233.86841Q66.64375 233.86841 65.89375 233.21216Q65.15938 232.55591 65.05 231.47778Z" fill-rule="nonzero"/><path fill="#000000" d="M62.01875 163.00555L60.971874 163.00555L60.971874 156.2868Q60.58125 156.64618 59.95625 157.02118Q59.346874 157.38055 58.8625 157.55243L58.8625 156.5368Q59.7375 156.11493 60.39375 155.5368Q61.065624 154.94305 61.346874 154.38055L62.01875 154.38055L62.01875 163.00555ZM65.05 158.77118Q65.05 157.23993 65.3625 156.31805Q65.675 155.38055 66.28438 154.88055Q66.90938 154.38055 67.84688 154.38055Q68.53438 154.38055 69.05 154.6618Q69.58125 154.94305 69.925 155.4743Q70.26875 155.98993 70.45625 156.73993Q70.64375 157.48993 70.64375 158.77118Q70.64375 160.2868 70.33125 161.20868Q70.03438 162.13055 69.40938 162.64618Q68.8 163.14618 67.84688 163.14618Q66.6125 163.14618 65.89375 162.25555Q65.05 161.19305 65.05 158.77118ZM66.12813 158.77118Q66.12813 160.88055 66.62813 161.58368Q67.12813 162.2868 67.84688 162.2868Q68.58125 162.2868 69.06563 161.58368Q69.56563 160.88055 69.56563 158.77118Q69.56563 156.64618 69.06563 155.95868Q68.58125 155.25555 67.83125 155.25555Q67.1125 155.25555 66.675 155.86493Q66.12813 156.64618 66.12813 158.77118Z" fill-rule="nonzero"/><path fill="#000000" d="M62.01875 92.28333L60.971874 92.28333L60.971874 85.56458Q60.58125 85.92396 59.95625 86.29896Q59.346874 86.65833 58.8625 86.83021L58.8625 85.81458Q59.7375 85.39271 60.39375 84.81458Q61.065624 84.22083 61.346874 83.65833L62.01875 83.65833L62.01875 92.28333ZM65.05 90.03333L66.15938 89.93958Q66.28438 90.75208 66.72188 91.15833Q67.175 91.56458 67.81563 91.56458Q68.56563 91.56458 69.09688 90.98646Q69.62813 90.40833 69.62813 89.47083Q69.62813 88.56458 69.1125 88.04896Q68.6125 87.51771 67.78438 87.51771Q67.28438 87.51771 66.8625 87.75208Q66.45625 87.98646 66.22188 88.34583L65.2375 88.22083L66.06563 83.81458L70.34688 83.81458L70.34688 84.81458L66.90938 84.81458L66.45625 87.12708Q67.22188 86.58021 68.06563 86.58021Q69.19063 86.58021 69.95625 87.36146Q70.7375 88.14271 70.7375 89.37708Q70.7375 90.53333 70.06563 91.39271Q69.2375 92.42396 67.81563 92.42396Q66.64375 92.42396 65.89375 91.76771Q65.15938 91.11146 65.05 90.03333Z" fill-rule="nonzero"/><path fill="#000000" d="M94.515175 310.96564L93.4683 311.04376Q93.327675 310.41876 93.077675 310.1375Q92.640175 309.6844 92.015175 309.6844Q91.515175 309.6844 91.12455 309.96564Q90.640175 310.34064 90.3433 311.04376Q90.06205 311.73126 90.046425 313.0125Q90.421425 312.4344 90.9683 312.15314Q91.5308 311.8719 92.140175 311.8719Q93.18705 311.8719 93.921425 312.65314Q94.671425 313.4344 94.671425 314.65314Q94.671425 315.46564 94.31205 316.16876Q93.9683 316.85626 93.358925 317.23126Q92.74955 317.59064 91.983925 317.59064Q90.6558 317.59064 89.827675 316.6219Q88.99955 315.65314 88.99955 313.4344Q88.99955 310.9344 89.921425 309.8094Q90.7183 308.825 92.077675 308.825Q93.0933 308.825 93.733925 309.40314Q94.390175 309.96564 94.515175 310.96564ZM90.2183 314.66876Q90.2183 315.21564 90.43705 315.71564Q90.671425 316.2 91.077675 316.46564Q91.49955 316.73126 91.9683 316.73126Q92.62455 316.73126 93.108925 316.2Q93.5933 315.65314 93.5933 314.73126Q93.5933 313.84064 93.108925 313.325Q92.640175 312.8094 91.921425 312.8094Q91.202675 312.8094 90.702675 313.325Q90.2183 313.84064 90.2183 314.66876ZM99.421425 317.45L99.421425 315.3875L95.702675 315.3875L95.702675 314.41876L99.62455 308.85626L100.483925 308.85626L100.483925 314.41876L101.640175 314.41876L101.640175 315.3875L100.483925 315.3875L100.483925 317.45L99.421425 317.45ZM99.421425 314.41876L99.421425 310.5594L96.733925 314.41876L99.421425 314.41876Z" fill-rule="nonzero"/><path fill="#000000" d="M130.50803 310.96564L129.46115 311.04376Q129.32053 310.41876 129.07053 310.1375Q128.63303 309.6844 128.00803 309.6844Q127.50803 309.6844 127.11741 309.96564Q126.63303 310.34064 126.33616 311.04376Q126.05491 311.73126 126.03928 313.0125Q126.41428 312.4344 126.96116 312.15314Q127.52366 311.8719 128.13303 311.8719Q129.1799 311.8719 129.91428 312.65314Q130.66428 313.4344 130.66428 314.65314Q130.66428 315.46564 130.3049 316.16876Q129.96115 316.85626 129.35178 317.23126Q128.7424 317.59064 127.97678 317.59064Q126.64866 317.59064 125.82053 316.6219Q124.99241 315.65314 124.99241 313.4344Q124.99241 310.9344 125.91428 309.8094Q126.71116 308.825 128.07053 308.825Q129.08615 308.825 129.72678 309.40314Q130.38303 309.96564 130.50803 310.96564ZM126.21116 314.66876Q126.21116 315.21564 126.42991 315.71564Q126.66428 316.2 127.07053 316.46564Q127.49241 316.73126 127.96116 316.73126Q128.6174 316.73126 129.10178 316.2Q129.58615 315.65314 129.58615 314.73126Q129.58615 313.84064 129.10178 313.325Q128.63303 312.8094 127.91428 312.8094Q127.19553 312.8094 126.69553 313.325Q126.21116 313.84064 126.21116 314.66876ZM133.66428 312.79376Q133.00803 312.54376 132.6799 312.10626Q132.3674 311.65314 132.3674 311.04376Q132.3674 310.10626 133.03928 309.46564Q133.72678 308.825 134.83615 308.825Q135.96115 308.825 136.64865 309.48126Q137.33615 310.1375 137.33615 311.075Q137.33615 311.66876 137.02365 312.10626Q136.71115 312.54376 136.07053 312.79376Q136.8674 313.04376 137.27365 313.6219Q137.6799 314.2 137.6799 314.9969Q137.6799 316.09064 136.89865 316.84064Q136.13303 317.59064 134.85178 317.59064Q133.58615 317.59064 132.8049 316.84064Q132.02365 316.09064 132.02365 314.96564Q132.02365 314.1219 132.44553 313.5594Q132.88303 312.9969 133.66428 312.79376ZM133.44553 310.9969Q133.44553 311.60626 133.83615 311.9969Q134.2424 312.3875 134.8674 312.3875Q135.47678 312.3875 135.8674 312.0125Q136.25803 311.6219 136.25803 311.0594Q136.25803 310.48126 135.85178 310.09064Q135.44553 309.6844 134.85178 309.6844Q134.2424 309.6844 133.83615 310.075Q133.44553 310.46564 133.44553 310.9969ZM133.1174 314.96564Q133.1174 315.41876 133.32053 315.84064Q133.53928 316.2625 133.96115 316.4969Q134.38303 316.73126 134.8674 316.73126Q135.6174 316.73126 136.10178 316.2469Q136.60178 315.7625 136.60178 315.0125Q136.60178 314.2469 136.10178 313.7469Q135.60178 313.2469 134.83615 313.2469Q134.08615 313.2469 133.60178 313.7469Q133.1174 314.23126 133.1174 314.96564Z" fill-rule="nonzero"/><path fill="#000000" d="M161.09465 309.98126L161.09465 308.96564L166.65715 308.96564L166.65715 309.79376Q165.84465 310.66876 165.03215 312.1219Q164.23528 313.5594 163.79778 315.09064Q163.46965 316.16876 163.39153 317.45L162.29778 317.45Q162.3134 316.4344 162.6884 314.9969Q163.07903 313.5594 163.78215 312.23126Q164.5009 310.90314 165.3134 309.98126L161.09465 309.98126ZM173.57903 316.4344L173.57903 317.45L167.89153 317.45Q167.89153 317.075 168.01653 316.71564Q168.23528 316.1375 168.70403 315.575Q169.1884 315.0125 170.09465 314.27814Q171.5009 313.1219 171.98528 312.45Q172.48528 311.77814 172.48528 311.1844Q172.48528 310.5594 172.03215 310.1375Q171.57903 309.7 170.86028 309.7Q170.09465 309.7 169.64153 310.15314Q169.1884 310.60626 169.17278 311.41876L168.09465 311.3094Q168.20403 310.09064 168.92278 309.46564Q169.65715 308.825 170.89153 308.825Q172.1259 308.825 172.84465 309.5125Q173.5634 310.2 173.5634 311.21564Q173.5634 311.73126 173.34465 312.23126Q173.14153 312.71564 172.64153 313.27814Q172.15715 313.825 171.03215 314.77814Q170.07903 315.575 169.79778 315.8719Q169.53215 316.15314 169.36028 316.4344L173.57903 316.4344Z" fill-rule="nonzero"/><path fill="#000000" d="M197.49374 317.45L196.44687 317.45L196.44687 310.73126Q196.05624 311.09064 195.43124 311.46564Q194.82187 311.825 194.3375 311.9969L194.3375 310.98126Q195.2125 310.5594 195.86874 309.98126Q196.54062 309.3875 196.82187 308.825L197.49374 308.825L197.49374 317.45ZM206.07187 316.4344L206.07187 317.45L200.38437 317.45Q200.38437 317.075 200.50937 316.71564Q200.72812 316.1375 201.19687 315.575Q201.68124 315.0125 202.5875 314.27814Q203.99374 313.1219 204.47812 312.45Q204.97812 311.77814 204.97812 311.1844Q204.97812 310.5594 204.525 310.1375Q204.07187 309.7 203.35312 309.7Q202.5875 309.7 202.13437 310.15314Q201.68124 310.60626 201.66562 311.41876L200.5875 311.3094Q200.69687 310.09064 201.41562 309.46564Q202.15 308.825 203.38437 308.825Q204.61874 308.825 205.3375 309.5125Q206.05624 310.2 206.05624 311.21564Q206.05624 311.73126 205.8375 312.23126Q205.63437 312.71564 205.13437 313.27814Q204.65 313.825 203.525 314.77814Q202.57187 315.575 202.29062 315.8719Q202.025 316.15314 201.85312 316.4344L206.07187 316.4344ZM209.15 312.79376Q208.49374 312.54376 208.16562 312.10626Q207.85312 311.65314 207.85312 311.04376Q207.85312 310.10626 208.525 309.46564Q209.2125 308.825 210.32187 308.825Q211.44687 308.825 212.13437 309.48126Q212.82187 310.1375 212.82187 311.075Q212.82187 311.66876 212.50937 312.10626Q212.19687 312.54376 211.55624 312.79376Q212.35312 313.04376 212.75937 313.6219Q213.16562 314.2 213.16562 314.9969Q213.16562 316.09064 212.38437 316.84064Q211.61874 317.59064 210.3375 317.59064Q209.07187 317.59064 208.29062 316.84064Q207.50937 316.09064 207.50937 314.96564Q207.50937 314.1219 207.93124 313.5594Q208.36874 312.9969 209.15 312.79376ZM208.93124 310.9969Q208.93124 311.60626 209.32187 311.9969Q209.72812 312.3875 210.35312 312.3875Q210.9625 312.3875 211.35312 312.0125Q211.74374 311.6219 211.74374 311.0594Q211.74374 310.48126 211.3375 310.09064Q210.93124 309.6844 210.3375 309.6844Q209.72812 309.6844 209.32187 310.075Q208.93124 310.46564 208.93124 310.9969ZM208.60312 314.96564Q208.60312 315.41876 208.80624 315.84064Q209.025 316.2625 209.44687 316.4969Q209.86874 316.73126 210.35312 316.73126Q211.10312 316.73126 211.5875 316.2469Q212.0875 315.7625 212.0875 315.0125Q212.0875 314.2469 211.5875 313.7469Q211.0875 313.2469 210.32187 313.2469Q209.57187 313.2469 209.0875 313.7469Q208.60312 314.23126 208.60312 314.96564Z" fill-rule="nonzero"/><path fill="#000000" d="M235.06473 316.4344L235.06473 317.45L229.37723 317.45Q229.37723 317.075 229.50223 316.71564Q229.72098 316.1375 230.18973 315.575Q230.6741 315.0125 231.58035 314.27814Q232.9866 313.1219 233.47098 312.45Q233.97098 311.77814 233.97098 311.1844Q233.97098 310.5594 233.51785 310.1375Q233.06473 309.7 232.34598 309.7Q231.58035 309.7 231.12723 310.15314Q230.6741 310.60626 230.65848 311.41876L229.58035 311.3094Q229.68973 310.09064 230.40848 309.46564Q231.14285 308.825 232.37723 308.825Q233.6116 308.825 234.33035 309.5125Q235.0491 310.2 235.0491 311.21564Q235.0491 311.73126 234.83035 312.23126Q234.62723 312.71564 234.12723 313.27814Q233.64285 313.825 232.51785 314.77814Q231.56473 315.575 231.28348 315.8719Q231.01785 316.15314 230.84598 316.4344L235.06473 316.4344ZM236.51785 315.2L237.62723 315.10626Q237.75223 315.91876 238.18973 316.325Q238.64285 316.73126 239.28348 316.73126Q240.03348 316.73126 240.56473 316.15314Q241.09598 315.575 241.09598 314.6375Q241.09598 313.73126 240.58035 313.21564Q240.08035 312.6844 239.25223 312.6844Q238.75223 312.6844 238.33035 312.91876Q237.9241 313.15314 237.68973 313.5125L236.70535 313.3875L237.53348 308.98126L241.81473 308.98126L241.81473 309.98126L238.37723 309.98126L237.9241 312.29376Q238.68973 311.7469 239.53348 311.7469Q240.65848 311.7469 241.4241 312.52814Q242.20535 313.3094 242.20535 314.54376Q242.20535 315.7 241.53348 316.5594Q240.70535 317.59064 239.28348 317.59064Q238.1116 317.59064 237.3616 316.9344Q236.62723 316.27814 236.51785 315.2ZM248.9866 310.96564L247.93973 311.04376Q247.7991 310.41876 247.5491 310.1375Q247.1116 309.6844 246.4866 309.6844Q245.9866 309.6844 245.59598 309.96564Q245.1116 310.34064 244.81473 311.04376Q244.53348 311.73126 244.51785 313.0125Q244.89285 312.4344 245.43973 312.15314Q246.00223 311.8719 246.6116 311.8719Q247.65848 311.8719 248.39285 312.65314Q249.14285 313.4344 249.14285 314.65314Q249.14285 315.46564 248.78348 316.16876Q248.43973 316.85626 247.83035 317.23126Q247.22098 317.59064 246.45535 317.59064Q245.12723 317.59064 244.2991 316.6219Q243.47098 315.65314 243.47098 313.4344Q243.47098 310.9344 244.39285 309.8094Q245.18973 308.825 246.5491 308.825Q247.56473 308.825 248.20535 309.40314Q248.8616 309.96564 248.9866 310.96564ZM244.68973 314.66876Q244.68973 315.21564 244.90848 315.71564Q245.14285 316.2 245.5491 316.46564Q245.97098 316.73126 246.43973 316.73126Q247.09598 316.73126 247.58035 316.2Q248.06473 315.65314 248.06473 314.73126Q248.06473 313.84064 247.58035 313.325Q247.1116 312.8094 246.39285 312.8094Q245.6741 312.8094 245.1741 313.325Q244.68973 313.84064 244.68973 314.66876Z" fill-rule="nonzero"/><path fill="#000000" d="M265.5107 315.1844L266.5732 315.04376Q266.7451 315.9344 267.1826 316.34064Q267.6201 316.73126 268.2451 316.73126Q268.9951 316.73126 269.5107 316.21564Q270.02634 315.7 270.02634 314.9344Q270.02634 314.21564 269.54196 313.7469Q269.0732 313.2625 268.33884 313.2625Q268.04196 313.2625 267.58884 313.3875L267.71384 312.45Q267.8232 312.46564 267.8857 312.46564Q268.5576 312.46564 269.08884 312.1219Q269.6357 311.7625 269.6357 311.02814Q269.6357 310.45 269.2451 310.075Q268.85446 309.6844 268.22946 309.6844Q267.6201 309.6844 267.1982 310.075Q266.79196 310.46564 266.6826 311.23126L265.6201 311.04376Q265.8076 309.9969 266.4951 309.41876Q267.1826 308.825 268.1982 308.825Q268.90134 308.825 269.4951 309.1375Q270.08884 309.4344 270.40134 309.95Q270.71384 310.46564 270.71384 311.0594Q270.71384 311.60626 270.41696 312.075Q270.1201 312.52814 269.54196 312.79376Q270.29196 312.96564 270.71384 313.52814Q271.1357 314.075 271.1357 314.91876Q271.1357 316.04376 270.3076 316.825Q269.4951 317.60626 268.2451 317.60626Q267.1201 317.60626 266.3701 316.9344Q265.6201 316.2469 265.5107 315.1844ZM274.1357 312.79376Q273.47946 312.54376 273.15134 312.10626Q272.83884 311.65314 272.83884 311.04376Q272.83884 310.10626 273.5107 309.46564Q274.1982 308.825 275.3076 308.825Q276.4326 308.825 277.1201 309.48126Q277.8076 310.1375 277.8076 311.075Q277.8076 311.66876 277.4951 312.10626Q277.1826 312.54376 276.54196 312.79376Q277.33884 313.04376 277.7451 313.6219Q278.15134 314.2 278.15134 314.9969Q278.15134 316.09064 277.3701 316.84064Q276.60446 317.59064 275.3232 317.59064Q274.0576 317.59064 273.27634 316.84064Q272.4951 316.09064 272.4951 314.96564Q272.4951 314.1219 272.91696 313.5594Q273.35446 312.9969 274.1357 312.79376ZM273.91696 310.9969Q273.91696 311.60626 274.3076 311.9969Q274.71384 312.3875 275.33884 312.3875Q275.9482 312.3875 276.33884 312.0125Q276.72946 311.6219 276.72946 311.0594Q276.72946 310.48126 276.3232 310.09064Q275.91696 309.6844 275.3232 309.6844Q274.71384 309.6844 274.3076 310.075Q273.91696 310.46564 273.91696 310.9969ZM273.58884 314.96564Q273.58884 315.41876 273.79196 315.84064Q274.0107 316.2625 274.4326 316.4969Q274.85446 316.73126 275.33884 316.73126Q276.08884 316.73126 276.5732 316.2469Q277.0732 315.7625 277.0732 315.0125Q277.0732 314.2469 276.5732 313.7469Q276.0732 313.2469 275.3076 313.2469Q274.5576 313.2469 274.0732 313.7469Q273.58884 314.23126 273.58884 314.96564ZM282.8857 317.45L282.8857 315.3875L279.16696 315.3875L279.16696 314.41876L283.08884 308.85626L283.9482 308.85626L283.9482 314.41876L285.10446 314.41876L285.10446 315.3875L283.9482 315.3875L283.9482 317.45L282.8857 317.45ZM282.8857 314.41876L282.8857 310.5594L280.1982 314.41876L282.8857 314.41876Z" fill-rule="nonzero"/><path fill="#000000" d="M301.50357 315.2L302.61295 315.10626Q302.73795 315.91876 303.17545 316.325Q303.62857 316.73126 304.2692 316.73126Q305.0192 316.73126 305.55045 316.15314Q306.0817 315.575 306.0817 314.6375Q306.0817 313.73126 305.56607 313.21564Q305.06607 312.6844 304.23795 312.6844Q303.73795 312.6844 303.31607 312.91876Q302.90982 313.15314 302.67545 313.5125L301.69107 313.3875L302.5192 308.98126L306.80045 308.98126L306.80045 309.98126L303.36295 309.98126L302.90982 312.29376Q303.67545 311.7469 304.5192 311.7469Q305.6442 311.7469 306.40982 312.52814Q307.19107 313.3094 307.19107 314.54376Q307.19107 315.7 306.5192 316.5594Q305.69107 317.59064 304.2692 317.59064Q303.09732 317.59064 302.34732 316.9344Q301.61295 316.27814 301.50357 315.2ZM312.47232 317.45L311.42545 317.45L311.42545 310.73126Q311.03482 311.09064 310.40982 311.46564Q309.80045 311.825 309.31607 311.9969L309.31607 310.98126Q310.19107 310.5594 310.84732 309.98126Q311.5192 309.3875 311.80045 308.825L312.47232 308.825L312.47232 317.45ZM321.05045 316.4344L321.05045 317.45L315.36295 317.45Q315.36295 317.075 315.48795 316.71564Q315.7067 316.1375 316.17545 315.575Q316.65982 315.0125 317.56607 314.27814Q318.97232 313.1219 319.4567 312.45Q319.9567 311.77814 319.9567 311.1844Q319.9567 310.5594 319.50357 310.1375Q319.05045 309.7 318.3317 309.7Q317.56607 309.7 317.11295 310.15314Q316.65982 310.60626 316.6442 311.41876L315.56607 311.3094Q315.67545 310.09064 316.3942 309.46564Q317.12857 308.825 318.36295 308.825Q319.59732 308.825 320.31607 309.5125Q321.03482 310.2 321.03482 311.21564Q321.03482 311.73126 320.81607 312.23126Q320.61295 312.71564 320.11295 313.27814Q319.62857 313.825 318.50357 314.77814Q317.55045 315.575 317.2692 315.8719Q317.00357 316.15314 316.8317 316.4344L321.05045 316.4344Z" fill-rule="nonzero"/><path fill="#000000" d="M342.96518 310.96564L341.9183 311.04376Q341.77768 310.41876 341.52768 310.1375Q341.09018 309.6844 340.46518 309.6844Q339.96518 309.6844 339.57455 309.96564Q339.09018 310.34064 338.7933 311.04376Q338.51205 311.73126 338.49643 313.0125Q338.87143 312.4344 339.4183 312.15314Q339.9808 311.8719 340.59018 311.8719Q341.63705 311.8719 342.37143 312.65314Q343.12143 313.4344 343.12143 314.65314Q343.12143 315.46564 342.76205 316.16876Q342.4183 316.85626 341.80893 317.23126Q341.19955 317.59064 340.43393 317.59064Q339.1058 317.59064 338.27768 316.6219Q337.44955 315.65314 337.44955 313.4344Q337.44955 310.9344 338.37143 309.8094Q339.1683 308.825 340.52768 308.825Q341.5433 308.825 342.18393 309.40314Q342.84018 309.96564 342.96518 310.96564ZM338.6683 314.66876Q338.6683 315.21564 338.88705 315.71564Q339.12143 316.2 339.52768 316.46564Q339.94955 316.73126 340.4183 316.73126Q341.07455 316.73126 341.55893 316.2Q342.0433 315.65314 342.0433 314.73126Q342.0433 313.84064 341.55893 313.325Q341.09018 312.8094 340.37143 312.8094Q339.65268 312.8094 339.15268 313.325Q338.6683 313.84064 338.6683 314.66876ZM347.87143 317.45L347.87143 315.3875L344.15268 315.3875L344.15268 314.41876L348.07455 308.85626L348.93393 308.85626L348.93393 314.41876L350.09018 314.41876L350.09018 315.3875L348.93393 315.3875L348.93393 317.45L347.87143 317.45ZM347.87143 314.41876L347.87143 310.5594L345.18393 314.41876L347.87143 314.41876ZM351.49643 313.21564Q351.49643 311.6844 351.80893 310.7625Q352.12143 309.825 352.7308 309.325Q353.3558 308.825 354.2933 308.825Q354.9808 308.825 355.49643 309.10626Q356.02768 309.3875 356.37143 309.91876Q356.71518 310.4344 356.90268 311.1844Q357.09018 311.9344 357.09018 313.21564Q357.09018 314.73126 356.77768 315.65314Q356.4808 316.575 355.8558 317.09064Q355.24643 317.59064 354.2933 317.59064Q353.05893 317.59064 352.34018 316.7Q351.49643 315.6375 351.49643 313.21564ZM352.57455 313.21564Q352.57455 315.325 353.07455 316.02814Q353.57455 316.73126 354.2933 316.73126Q355.02768 316.73126 355.51205 316.02814Q356.01205 315.325 356.01205 313.21564Q356.01205 311.09064 355.51205 310.40314Q355.02768 309.7 354.27768 309.7Q353.55893 309.7 353.12143 310.3094Q352.57455 311.09064 352.57455 313.21564Z" fill-rule="nonzero"/><path fill="#000000" d="M373.5518 309.98126L373.5518 308.96564L379.1143 308.96564L379.1143 309.79376Q378.3018 310.66876 377.4893 312.1219Q376.6924 313.5594 376.2549 315.09064Q375.9268 316.16876 375.84866 317.45L374.7549 317.45Q374.77054 316.4344 375.14554 314.9969Q375.53616 313.5594 376.2393 312.23126Q376.95804 310.90314 377.77054 309.98126L373.5518 309.98126ZM385.95804 310.96564L384.91116 311.04376Q384.77054 310.41876 384.52054 310.1375Q384.08304 309.6844 383.45804 309.6844Q382.95804 309.6844 382.5674 309.96564Q382.08304 310.34064 381.78616 311.04376Q381.5049 311.73126 381.4893 313.0125Q381.8643 312.4344 382.41116 312.15314Q382.97366 311.8719 383.58304 311.8719Q384.6299 311.8719 385.3643 312.65314Q386.1143 313.4344 386.1143 314.65314Q386.1143 315.46564 385.7549 316.16876Q385.41116 316.85626 384.8018 317.23126Q384.1924 317.59064 383.4268 317.59064Q382.09866 317.59064 381.27054 316.6219Q380.4424 315.65314 380.4424 313.4344Q380.4424 310.9344 381.3643 309.8094Q382.16116 308.825 383.52054 308.825Q384.53616 308.825 385.1768 309.40314Q385.83304 309.96564 385.95804 310.96564ZM381.66116 314.66876Q381.66116 315.21564 381.8799 315.71564Q382.1143 316.2 382.52054 316.46564Q382.9424 316.73126 383.41116 316.73126Q384.0674 316.73126 384.5518 316.2Q385.03616 315.65314 385.03616 314.73126Q385.03616 313.84064 384.5518 313.325Q384.08304 312.8094 383.3643 312.8094Q382.64554 312.8094 382.14554 313.325Q381.66116 313.84064 381.66116 314.66876ZM389.1143 312.79376Q388.45804 312.54376 388.1299 312.10626Q387.8174 311.65314 387.8174 311.04376Q387.8174 310.10626 388.4893 309.46564Q389.1768 308.825 390.28616 308.825Q391.41116 308.825 392.09866 309.48126Q392.78616 310.1375 392.78616 311.075Q392.78616 311.66876 392.47366 312.10626Q392.16116 312.54376 391.52054 312.79376Q392.3174 313.04376 392.72366 313.6219Q393.1299 314.2 393.1299 314.9969Q393.1299 316.09064 392.34866 316.84064Q391.58304 317.59064 390.3018 317.59064Q389.03616 317.59064 388.2549 316.84064Q387.47366 316.09064 387.47366 314.96564Q387.47366 314.1219 387.89554 313.5594Q388.33304 312.9969 389.1143 312.79376ZM388.89554 310.9969Q388.89554 311.60626 389.28616 311.9969Q389.6924 312.3875 390.3174 312.3875Q390.9268 312.3875 391.3174 312.0125Q391.70804 311.6219 391.70804 311.0594Q391.70804 310.48126 391.3018 310.09064Q390.89554 309.6844 390.3018 309.6844Q389.6924 309.6844 389.28616 310.075Q388.89554 310.46564 388.89554 310.9969ZM388.5674 314.96564Q388.5674 315.41876 388.77054 315.84064Q388.9893 316.2625 389.41116 316.4969Q389.83304 316.73126 390.3174 316.73126Q391.0674 316.73126 391.5518 316.2469Q392.0518 315.7625 392.0518 315.0125Q392.0518 314.2469 391.5518 313.7469Q391.0518 313.2469 390.28616 313.2469Q389.53616 313.2469 389.0518 313.7469Q388.5674 314.23126 388.5674 314.96564Z" fill-rule="nonzero"/><path fill="#000000" d="M411.10715 312.79376Q410.4509 312.54376 410.12277 312.10626Q409.81027 311.65314 409.81027 311.04376Q409.81027 310.10626 410.48215 309.46564Q411.16965 308.825 412.27902 308.825Q413.40402 308.825 414.09152 309.48126Q414.77902 310.1375 414.77902 311.075Q414.77902 311.66876 414.46652 312.10626Q414.15402 312.54376 413.5134 312.79376Q414.31027 313.04376 414.71652 313.6219Q415.12277 314.2 415.12277 314.9969Q415.12277 316.09064 414.34152 316.84064Q413.5759 317.59064 412.29465 317.59064Q411.02902 317.59064 410.24777 316.84064Q409.46652 316.09064 409.46652 314.96564Q409.46652 314.1219 409.8884 313.5594Q410.3259 312.9969 411.10715 312.79376ZM410.8884 310.9969Q410.8884 311.60626 411.27902 311.9969Q411.68527 312.3875 412.31027 312.3875Q412.91965 312.3875 413.31027 312.0125Q413.7009 311.6219 413.7009 311.0594Q413.7009 310.48126 413.29465 310.09064Q412.8884 309.6844 412.29465 309.6844Q411.68527 309.6844 411.27902 310.075Q410.8884 310.46564 410.8884 310.9969ZM410.56027 314.96564Q410.56027 315.41876 410.7634 315.84064Q410.98215 316.2625 411.40402 316.4969Q411.8259 316.73126 412.31027 316.73126Q413.06027 316.73126 413.54465 316.2469Q414.04465 315.7625 414.04465 315.0125Q414.04465 314.2469 413.54465 313.7469Q413.04465 313.2469 412.27902 313.2469Q411.52902 313.2469 411.04465 313.7469Q410.56027 314.23126 410.56027 314.96564ZM416.6384 315.46564L417.65402 315.3719Q417.77902 316.09064 418.1384 316.41876Q418.5134 316.73126 419.0759 316.73126Q419.56027 316.73126 419.91965 316.5125Q420.29465 316.27814 420.52902 315.91876Q420.7634 315.54376 420.91965 314.91876Q421.0759 314.27814 421.0759 313.6219Q421.0759 313.54376 421.0759 313.40314Q420.7634 313.90314 420.21652 314.23126Q419.66965 314.54376 419.02902 314.54376Q417.9509 314.54376 417.21652 313.77814Q416.48215 312.9969 416.48215 311.73126Q416.48215 310.41876 417.24777 309.6219Q418.02902 308.825 419.18527 308.825Q420.0134 308.825 420.7009 309.27814Q421.40402 309.73126 421.7634 310.575Q422.12277 311.40314 422.12277 312.98126Q422.12277 314.6219 421.7634 315.60626Q421.41965 316.575 420.7009 317.09064Q419.99777 317.59064 419.06027 317.59064Q418.04465 317.59064 417.40402 317.04376Q416.7634 316.48126 416.6384 315.46564ZM420.9509 311.66876Q420.9509 310.7625 420.46652 310.23126Q419.99777 309.7 419.31027 309.7Q418.60715 309.7 418.0759 310.27814Q417.56027 310.84064 417.56027 311.7625Q417.56027 312.575 418.06027 313.09064Q418.56027 313.60626 419.27902 313.60626Q420.0134 313.60626 420.48215 313.09064Q420.9509 312.575 420.9509 311.66876ZM428.9509 310.96564L427.90402 311.04376Q427.7634 310.41876 427.5134 310.1375Q427.0759 309.6844 426.4509 309.6844Q425.9509 309.6844 425.56027 309.96564Q425.0759 310.34064 424.77902 311.04376Q424.49777 311.73126 424.48215 313.0125Q424.85715 312.4344 425.40402 312.15314Q425.96652 311.8719 426.5759 311.8719Q427.62277 311.8719 428.35715 312.65314Q429.10715 313.4344 429.10715 314.65314Q429.10715 315.46564 428.74777 316.16876Q428.40402 316.85626 427.79465 317.23126Q427.18527 317.59064 426.41965 317.59064Q425.09152 317.59064 424.2634 316.6219Q423.43527 315.65314 423.43527 313.4344Q423.43527 310.9344 424.35715 309.8094Q425.15402 308.825 426.5134 308.825Q427.52902 308.825 428.16965 309.40314Q428.8259 309.96564 428.9509 310.96564ZM424.65402 314.66876Q424.65402 315.21564 424.87277 315.71564Q425.10715 316.2 425.5134 316.46564Q425.93527 316.73126 426.40402 316.73126Q427.06027 316.73126 427.54465 316.2Q428.02902 315.65314 428.02902 314.73126Q428.02902 313.84064 427.54465 313.325Q427.0759 312.8094 426.35715 312.8094Q425.6384 312.8094 425.1384 313.325Q424.65402 313.84064 424.65402 314.66876Z" fill-rule="nonzero"/><path fill="#000000" d="M445.94376 317.45L444.89688 317.45L444.89688 310.73126Q444.50626 311.09064 443.88126 311.46564Q443.27188 311.825 442.7875 311.9969L442.7875 310.98126Q443.6625 310.5594 444.31876 309.98126Q444.99063 309.3875 445.27188 308.825L445.94376 308.825L445.94376 317.45ZM448.975 313.21564Q448.975 311.6844 449.2875 310.7625Q449.6 309.825 450.20938 309.325Q450.83438 308.825 451.77188 308.825Q452.45938 308.825 452.975 309.10626Q453.50626 309.3875 453.85 309.91876Q454.19376 310.4344 454.38126 311.1844Q454.56876 311.9344 454.56876 313.21564Q454.56876 314.73126 454.25626 315.65314Q453.95938 316.575 453.33438 317.09064Q452.725 317.59064 451.77188 317.59064Q450.5375 317.59064 449.81876 316.7Q448.975 315.6375 448.975 313.21564ZM450.05313 313.21564Q450.05313 315.325 450.55313 316.02814Q451.05313 316.73126 451.77188 316.73126Q452.50626 316.73126 452.99063 316.02814Q453.49063 315.325 453.49063 313.21564Q453.49063 311.09064 452.99063 310.40314Q452.50626 309.7 451.75626 309.7Q451.0375 309.7 450.6 310.3094Q450.05313 311.09064 450.05313 313.21564ZM461.52188 316.4344L461.52188 317.45L455.83438 317.45Q455.83438 317.075 455.95938 316.71564Q456.17813 316.1375 456.64688 315.575Q457.13126 315.0125 458.0375 314.27814Q459.44376 313.1219 459.92813 312.45Q460.42813 311.77814 460.42813 311.1844Q460.42813 310.5594 459.975 310.1375Q459.52188 309.7 458.80313 309.7Q458.0375 309.7 457.58438 310.15314Q457.13126 310.60626 457.11563 311.41876L456.0375 311.3094Q456.14688 310.09064 456.86563 309.46564Q457.6 308.825 458.83438 308.825Q460.06876 308.825 460.7875 309.5125Q461.50626 310.2 461.50626 311.21564Q461.50626 311.73126 461.2875 312.23126Q461.08438 312.71564 460.58438 313.27814Q460.1 313.825 458.975 314.77814Q458.02188 315.575 457.74063 315.8719Q457.475 316.15314 457.30313 316.4344L461.52188 316.4344ZM466.35 317.45L466.35 315.3875L462.63126 315.3875L462.63126 314.41876L466.55313 308.85626L467.4125 308.85626L467.4125 314.41876L468.56876 314.41876L468.56876 315.3875L467.4125 315.3875L467.4125 317.45L466.35 317.45ZM466.35 314.41876L466.35 310.5594L463.6625 314.41876L466.35 314.41876Z" fill-rule="nonzero"/><path fill="#000000" d="M481.9366 317.45L480.88974 317.45L480.88974 310.73126Q480.4991 311.09064 479.8741 311.46564Q479.26474 311.825 478.78036 311.9969L478.78036 310.98126Q479.65536 310.5594 480.3116 309.98126Q480.9835 309.3875 481.26474 308.825L481.9366 308.825L481.9366 317.45ZM490.51474 316.4344L490.51474 317.45L484.82724 317.45Q484.82724 317.075 484.95224 316.71564Q485.171 316.1375 485.63974 315.575Q486.1241 315.0125 487.03036 314.27814Q488.4366 313.1219 488.921 312.45Q489.421 311.77814 489.421 311.1844Q489.421 310.5594 488.96786 310.1375Q488.51474 309.7 487.796 309.7Q487.03036 309.7 486.57724 310.15314Q486.1241 310.60626 486.1085 311.41876L485.03036 311.3094Q485.13974 310.09064 485.8585 309.46564Q486.59286 308.825 487.82724 308.825Q489.0616 308.825 489.78036 309.5125Q490.4991 310.2 490.4991 311.21564Q490.4991 311.73126 490.28036 312.23126Q490.07724 312.71564 489.57724 313.27814Q489.09286 313.825 487.96786 314.77814Q487.01474 315.575 486.7335 315.8719Q486.46786 316.15314 486.296 316.4344L490.51474 316.4344ZM493.59286 312.79376Q492.9366 312.54376 492.6085 312.10626Q492.296 311.65314 492.296 311.04376Q492.296 310.10626 492.96786 309.46564Q493.65536 308.825 494.76474 308.825Q495.88974 308.825 496.57724 309.48126Q497.26474 310.1375 497.26474 311.075Q497.26474 311.66876 496.95224 312.10626Q496.63974 312.54376 495.9991 312.79376Q496.796 313.04376 497.20224 313.6219Q497.6085 314.2 497.6085 314.9969Q497.6085 316.09064 496.82724 316.84064Q496.0616 317.59064 494.78036 317.59064Q493.51474 317.59064 492.7335 316.84064Q491.95224 316.09064 491.95224 314.96564Q491.95224 314.1219 492.3741 313.5594Q492.8116 312.9969 493.59286 312.79376ZM493.3741 310.9969Q493.3741 311.60626 493.76474 311.9969Q494.171 312.3875 494.796 312.3875Q495.40536 312.3875 495.796 312.0125Q496.1866 311.6219 496.1866 311.0594Q496.1866 310.48126 495.78036 310.09064Q495.3741 309.6844 494.78036 309.6844Q494.171 309.6844 493.76474 310.075Q493.3741 310.46564 493.3741 310.9969ZM493.046 314.96564Q493.046 315.41876 493.2491 315.84064Q493.46786 316.2625 493.88974 316.4969Q494.3116 316.73126 494.796 316.73126Q495.546 316.73126 496.03036 316.2469Q496.53036 315.7625 496.53036 315.0125Q496.53036 314.2469 496.03036 313.7469Q495.53036 313.2469 494.76474 313.2469Q494.01474 313.2469 493.53036 313.7469Q493.046 314.23126 493.046 314.96564ZM498.96786 313.21564Q498.96786 311.6844 499.28036 310.7625Q499.59286 309.825 500.20224 309.325Q500.82724 308.825 501.76474 308.825Q502.45224 308.825 502.96786 309.10626Q503.4991 309.3875 503.84286 309.91876Q504.1866 310.4344 504.3741 311.1844Q504.5616 311.9344 504.5616 313.21564Q504.5616 314.73126 504.2491 315.65314Q503.95224 316.575 503.32724 317.09064Q502.71786 317.59064 501.76474 317.59064Q500.53036 317.59064 499.8116 316.7Q498.96786 315.6375 498.96786 313.21564ZM500.046 313.21564Q500.046 315.325 500.546 316.02814Q501.046 316.73126 501.76474 316.73126Q502.4991 316.73126 502.9835 316.02814Q503.4835 315.325 503.4835 313.21564Q503.4835 311.09064 502.9835 310.40314Q502.4991 309.7 501.7491 309.7Q501.03036 309.7 500.59286 310.3094Q500.046 311.09064 500.046 313.21564Z" fill-rule="nonzero"/><path fill="#000000" d="M517.92944 317.45L516.88257 317.45L516.88257 310.73126Q516.49194 311.09064 515.86694 311.46564Q515.25757 311.825 514.7732 311.9969L514.7732 310.98126Q515.6482 310.5594 516.30444 309.98126Q516.9763 309.3875 517.25757 308.825L517.92944 308.825L517.92944 317.45ZM524.3357 317.45L524.3357 315.3875L520.61694 315.3875L520.61694 314.41876L524.5388 308.85626L525.3982 308.85626L525.3982 314.41876L526.55444 314.41876L526.55444 315.3875L525.3982 315.3875L525.3982 317.45L524.3357 317.45ZM524.3357 314.41876L524.3357 310.5594L521.6482 314.41876L524.3357 314.41876ZM527.9607 313.21564Q527.9607 311.6844 528.2732 310.7625Q528.5857 309.825 529.19507 309.325Q529.82007 308.825 530.75757 308.825Q531.44507 308.825 531.9607 309.10626Q532.49194 309.3875 532.8357 309.91876Q533.17944 310.4344 533.36694 311.1844Q533.55444 311.9344 533.55444 313.21564Q533.55444 314.73126 533.24194 315.65314Q532.94507 316.575 532.32007 317.09064Q531.7107 317.59064 530.75757 317.59064Q529.5232 317.59064 528.80444 316.7Q527.9607 315.6375 527.9607 313.21564ZM529.0388 313.21564Q529.0388 315.325 529.5388 316.02814Q530.0388 316.73126 530.75757 316.73126Q531.49194 316.73126 531.9763 316.02814Q532.4763 315.325 532.4763 313.21564Q532.4763 311.09064 531.9763 310.40314Q531.49194 309.7 530.74194 309.7Q530.0232 309.7 529.5857 310.3094Q529.0388 311.09064 529.0388 313.21564ZM534.9607 313.21564Q534.9607 311.6844 535.2732 310.7625Q535.5857 309.825 536.19507 309.325Q536.82007 308.825 537.75757 308.825Q538.44507 308.825 538.9607 309.10626Q539.49194 309.3875 539.8357 309.91876Q540.17944 310.4344 540.36694 311.1844Q540.55444 311.9344 540.55444 313.21564Q540.55444 314.73126 540.24194 315.65314Q539.94507 316.575 539.32007 317.09064Q538.7107 317.59064 537.75757 317.59064Q536.5232 317.59064 535.80444 316.7Q534.9607 315.6375 534.9607 313.21564ZM536.0388 313.21564Q536.0388 315.325 536.5388 316.02814Q537.0388 316.73126 537.75757 316.73126Q538.49194 316.73126 538.9763 316.02814Q539.4763 315.325 539.4763 313.21564Q539.4763 311.09064 538.9763 310.40314Q538.49194 309.7 537.74194 309.7Q537.0232 309.7 536.5857 310.3094Q536.0388 311.09064 536.0388 313.21564Z" fill-rule="nonzero"/><path fill="#000000" d="M553.9223 317.45L552.8754 317.45L552.8754 310.73126Q552.4848 311.09064 551.8598 311.46564Q551.2504 311.825 550.76605 311.9969L550.76605 310.98126Q551.64105 310.5594 552.2973 309.98126Q552.9692 309.3875 553.2504 308.825L553.9223 308.825L553.9223 317.45ZM556.95355 315.2L558.0629 315.10626Q558.1879 315.91876 558.6254 316.325Q559.07855 316.73126 559.7192 316.73126Q560.4692 316.73126 561.0004 316.15314Q561.5317 315.575 561.5317 314.6375Q561.5317 313.73126 561.01605 313.21564Q560.51605 312.6844 559.6879 312.6844Q559.1879 312.6844 558.76605 312.91876Q558.3598 313.15314 558.1254 313.5125L557.14105 313.3875L557.9692 308.98126L562.2504 308.98126L562.2504 309.98126L558.8129 309.98126L558.3598 312.29376Q559.1254 311.7469 559.9692 311.7469Q561.0942 311.7469 561.8598 312.52814Q562.64105 313.3094 562.64105 314.54376Q562.64105 315.7 561.9692 316.5594Q561.14105 317.59064 559.7192 317.59064Q558.5473 317.59064 557.7973 316.9344Q557.0629 316.27814 556.95355 315.2ZM567.9223 317.45L566.8754 317.45L566.8754 310.73126Q566.4848 311.09064 565.8598 311.46564Q565.2504 311.825 564.76605 311.9969L564.76605 310.98126Q565.64105 310.5594 566.2973 309.98126Q566.9692 309.3875 567.2504 308.825L567.9223 308.825L567.9223 317.45ZM572.57855 312.79376Q571.9223 312.54376 571.5942 312.10626Q571.2817 311.65314 571.2817 311.04376Q571.2817 310.10626 571.95355 309.46564Q572.64105 308.825 573.7504 308.825Q574.8754 308.825 575.5629 309.48126Q576.2504 310.1375 576.2504 311.075Q576.2504 311.66876 575.9379 312.10626Q575.6254 312.54376 574.9848 312.79376Q575.7817 313.04376 576.1879 313.6219Q576.5942 314.2 576.5942 314.9969Q576.5942 316.09064 575.8129 316.84064Q575.0473 317.59064 573.76605 317.59064Q572.5004 317.59064 571.7192 316.84064Q570.9379 316.09064 570.9379 314.96564Q570.9379 314.1219 571.3598 313.5594Q571.7973 312.9969 572.57855 312.79376ZM572.3598 310.9969Q572.3598 311.60626 572.7504 311.9969Q573.1567 312.3875 573.7817 312.3875Q574.39105 312.3875 574.7817 312.0125Q575.1723 311.6219 575.1723 311.0594Q575.1723 310.48126 574.76605 310.09064Q574.3598 309.6844 573.76605 309.6844Q573.1567 309.6844 572.7504 310.075Q572.3598 310.46564 572.3598 310.9969ZM572.0317 314.96564Q572.0317 315.41876 572.2348 315.84064Q572.45355 316.2625 572.8754 316.4969Q573.2973 316.73126 573.7817 316.73126Q574.5317 316.73126 575.01605 316.2469Q575.51605 315.7625 575.51605 315.0125Q575.51605 314.2469 575.01605 313.7469Q574.51605 313.2469 573.7504 313.2469Q573.0004 313.2469 572.51605 313.7469Q572.0317 314.23126 572.0317 314.96564Z" fill-rule="nonzero"/><path stroke="#4285f4" stroke-width="4.0" stroke-linecap="butt" d="M254.5 61.916668L266.5 61.916668" fill-rule="nonzero"/><path fill="#1a1a1a" d="M281.5625 62.90104L282.6875 63.197914Q282.32812 64.58854 281.40625 65.322914Q280.48438 66.05729 279.14062 66.05729Q277.75 66.05729 276.875 65.49479Q276.0 64.93229 275.54688 63.86979Q275.09375 62.791664 275.09375 61.55729Q275.09375 60.21354 275.60938 59.21354Q276.125 58.21354 277.0625 57.697914Q278.01562 57.18229 279.15625 57.18229Q280.4375 57.18229 281.3125 57.83854Q282.20312 58.49479 282.54688 59.68229L281.42188 59.947914Q281.125 59.010414 280.54688 58.58854Q279.98438 58.15104 279.125 58.15104Q278.14062 58.15104 277.46875 58.635414Q276.8125 59.104164 276.53125 59.90104Q276.26562 60.697914 276.26562 61.55729Q276.26562 62.65104 276.57812 63.46354Q276.90625 64.27604 277.57812 64.68229Q278.25 65.08854 279.04688 65.08854Q280.0 65.08854 280.65625 64.541664Q281.32812 63.99479 281.5625 62.90104Z" fill-rule="nonzero"/><path stroke="#ea4335" stroke-width="4.0" stroke-linecap="butt" d="M299.5 61.916668L311.5 61.916668" fill-rule="nonzero"/><path fill="#1a1a1a" d="M320.4375 65.916664L320.4375 57.322914L324.25 57.322914Q325.40625 57.322914 326.0 57.55729Q326.59375 57.791664 326.95312 58.385414Q327.3125 58.96354 327.3125 59.666664Q327.3125 60.58854 326.71875 61.21354Q326.125 61.83854 324.89062 62.010414Q325.34375 62.229164 325.57812 62.43229Q326.07812 62.885414 326.51562 63.572914L328.01562 65.916664L326.57812 65.916664L325.45312 64.135414Q324.95312 63.354164 324.625 62.947914Q324.3125 62.541664 324.04688 62.385414Q323.79688 62.21354 323.53125 62.135414Q323.34375 62.104164 322.90625 62.104164L321.57812 62.104164L321.57812 65.916664L320.4375 65.916664ZM321.57812 61.11979L324.03125 61.11979Q324.79688 61.11979 325.23438 60.96354Q325.6875 60.791664 325.90625 60.447914Q326.14062 60.08854 326.14062 59.666664Q326.14062 59.05729 325.6875 58.666664Q325.25 58.27604 324.29688 58.27604L321.57812 58.27604L321.57812 61.11979ZM333.375 65.916664L333.375 64.99479Q332.64062 66.05729 331.39062 66.05729Q330.84375 66.05729 330.35938 65.854164Q329.89062 65.635414 329.65625 65.322914Q329.42188 64.99479 329.32812 64.52604Q329.26562 64.229164 329.26562 63.541664L329.26562 59.697914L330.32812 59.697914L330.32812 63.15104Q330.32812 63.96354 330.39062 64.260414Q330.48438 64.666664 330.79688 64.916664Q331.125 65.15104 331.60938 65.15104Q332.07812 65.15104 332.48438 64.916664Q332.90625 64.666664 333.07812 64.24479Q333.26562 63.822914 333.26562 63.02604L333.26562 59.697914L334.3125 59.697914L334.3125 65.916664L333.375 65.916664ZM335.875 64.05729L336.90625 63.90104Q337.0 64.52604 337.39062 64.854164Q337.79688 65.18229 338.53125 65.18229Q339.25 65.18229 339.59375 64.90104Q339.95312 64.604164 339.95312 64.197914Q339.95312 63.83854 339.64062 63.635414Q339.42188 63.49479 338.5625 63.27604Q337.40625 62.979164 336.95312 62.77604Q336.51562 62.55729 336.28125 62.18229Q336.04688 61.80729 336.04688 61.33854Q336.04688 60.93229 336.23438 60.572914Q336.42188 60.21354 336.75 59.979164Q337.0 59.80729 337.42188 59.68229Q337.84375 59.55729 338.34375 59.55729Q339.0625 59.55729 339.60938 59.77604Q340.17188 59.979164 340.4375 60.33854Q340.70312 60.697914 340.79688 61.291664L339.76562 61.43229Q339.70312 60.96354 339.35938 60.697914Q339.03125 60.416664 338.40625 60.416664Q337.6875 60.416664 337.375 60.666664Q337.0625 60.90104 337.0625 61.229164Q337.0625 61.43229 337.1875 61.58854Q337.32812 61.760414 337.59375 61.86979Q337.75 61.93229 338.53125 62.135414Q339.65625 62.447914 340.09375 62.635414Q340.53125 62.822914 340.78125 63.18229Q341.03125 63.541664 341.03125 64.08854Q341.03125 64.61979 340.71875 65.08854Q340.42188 65.541664 339.84375 65.80729Q339.26562 66.05729 338.53125 66.05729Q337.3125 66.05729 336.67188 65.55729Q336.04688 65.041664 335.875 64.05729ZM345.59375 64.979164L345.75 65.90104Q345.29688 65.99479 344.95312 65.99479Q344.375 65.99479 344.0625 65.822914Q343.75 65.635414 343.60938 65.33854Q343.48438 65.041664 343.48438 64.08854L343.48438 60.510414L342.71875 60.510414L342.71875 59.697914L343.48438 59.697914L343.48438 58.15104L344.53125 57.52604L344.53125 59.697914L345.59375 59.697914L345.59375 60.510414L344.53125 60.510414L344.53125 64.15104Q344.53125 64.604164 344.57812 64.729164Q344.64062 64.854164 344.76562 64.93229Q344.89062 65.010414 345.125 65.010414Q345.3125 65.010414 345.59375 64.979164Z" fill-rule="nonzero"/><path fill="#757575" d="M19.128124 33.4875L20.83125 33.253124Q20.909374 34.89375 21.45625 35.503124Q22.003124 36.096874 22.971874 36.096874Q23.675 36.096874 24.190624 35.784374Q24.70625 35.45625 24.89375 34.89375Q25.096874 34.33125 25.096874 33.096874L25.096874 23.2375L27.003124 23.2375L27.003124 32.9875Q27.003124 34.784374 26.565624 35.76875Q26.128124 36.753124 25.175 37.284374Q24.2375 37.8 22.971874 37.8Q21.096874 37.8 20.08125 36.721874Q19.08125 35.628124 19.128124 33.4875ZM29.878124 25.253124L29.878124 23.2375L31.64375 23.2375L31.64375 25.253124L29.878124 25.253124ZM29.878124 37.55L29.878124 27.175L31.64375 27.175L31.64375 37.55L29.878124 37.55ZM37.70625 35.971874L37.95625 37.534374Q37.221874 37.690624 36.628124 37.690624Q35.675 37.690624 35.14375 37.39375Q34.628124 37.08125 34.409374 36.596874Q34.190624 36.096874 34.190624 34.51875L34.190624 28.55L32.909374 28.55L32.909374 27.175L34.190624 27.175L34.190624 24.6125L35.940624 23.55L35.940624 27.175L37.70625 27.175L37.70625 28.55L35.940624 28.55L35.940624 34.6125Q35.940624 35.3625 36.034374 35.58125Q36.128124 35.784374 36.33125 35.925Q36.55 36.05 36.940624 36.05Q37.221874 36.05 37.70625 35.971874ZM43.70625 35.971874L43.95625 37.534374Q43.221874 37.690624 42.628124 37.690624Q41.675 37.690624 41.14375 37.39375Q40.628124 37.08125 40.409374 36.596874Q40.190624 36.096874 40.190624 34.51875L40.190624 28.55L38.909374 28.55L38.909374 27.175L40.190624 27.175L40.190624 24.6125L41.940624 23.55L41.940624 27.175L43.70625 27.175L43.70625 28.55L41.940624 28.55L41.940624 34.6125Q41.940624 35.3625 42.034374 35.58125Q42.128124 35.784374 42.33125 35.925Q42.55 36.05 42.940624 36.05Q43.221874 36.05 43.70625 35.971874ZM52.971874 34.20625L54.784374 34.440624Q54.3625 36.01875 53.190624 36.909374Q52.034374 37.784374 50.221874 37.784374Q47.95625 37.784374 46.6125 36.39375Q45.284374 34.9875 45.284374 32.45625Q45.284374 29.83125 46.628124 28.39375Q47.971874 26.940624 50.128124 26.940624Q52.20625 26.940624 53.51875 28.3625Q54.846874 29.76875 54.846874 32.346874Q54.846874 32.503124 54.83125 32.815624L47.096874 32.815624Q47.190624 34.51875 48.065624 35.425Q48.940624 36.33125 50.2375 36.33125Q51.20625 36.33125 51.878124 35.83125Q52.565624 35.315624 52.971874 34.20625ZM47.190624 31.3625L52.9875 31.3625Q52.878124 30.065624 52.33125 29.409374Q51.4875 28.39375 50.14375 28.39375Q48.940624 28.39375 48.1125 29.20625Q47.284374 30.003124 47.190624 31.3625ZM56.846874 37.55L56.846874 27.175L58.425 27.175L58.425 28.753124Q59.034374 27.64375 59.55 27.3Q60.065624 26.940624 60.675 26.940624Q61.565624 26.940624 62.4875 27.503124L61.878124 29.14375Q61.2375 28.753124 60.596874 28.753124Q60.01875 28.753124 59.55 29.1125Q59.096874 29.45625 58.89375 30.065624Q58.6125 31.003124 58.6125 32.1125L58.6125 37.55L56.846874 37.55Z" fill-rule="nonzero"/></svg>